<svg width="1000" height="1000" viewBox="0 0 1000 1000" fill="none" xmlns="http://www.w3.org/2000/svg">
<rect width="1000" height="1000" fill="#1B1E1E"/>
<g clip-path="url(#clip0_64_64)">
<path fill-rule="evenodd" clip-rule="evenodd" d="M506.909 502.086C536.036 501.114 560.982 494.504 581.749 482.257C604.457 468.864 615.739 452.873 615.596 434.285C615.602 415.61 604.329 399.621 581.78 386.322C559.229 373.022 532.121 366.374 500.455 366.378C468.938 366.293 441.826 372.947 419.117 386.34C396.409 399.733 385.052 415.767 385.046 434.443C385.338 453.12 396.685 469.063 419.087 482.275C433.722 490.906 451.495 496.895 472.405 500.24L471.95 520.854L506.454 521.907L506.909 502.086ZM472.86 478.304C461.808 475.839 452.25 472.228 444.185 467.472C428.654 458.312 420.89 447.389 420.894 434.704C420.898 422.018 428.893 410.961 444.878 401.534C460.864 392.106 479.611 387.39 501.12 387.388C522.629 387.385 541.149 391.964 556.681 401.125C572.212 410.285 579.976 421.207 579.972 433.893C579.967 446.578 571.973 457.635 555.987 467.063C542.392 475.081 526.184 479.708 507.364 480.944L508.047 445.133L473.543 444.08L472.86 478.304Z" fill="#F8F8F8"/>
<path fill-rule="evenodd" clip-rule="evenodd" d="M542.187 285.334C518.844 271.558 480.984 271.555 457.634 285.327L217.509 426.948C205.811 433.848 199.975 442.895 200 451.937L200.05 548.935C199.96 558.027 205.796 567.136 217.558 574.073L457.646 715.673C480.992 729.442 518.842 729.442 542.187 715.673L782.276 574.073C794.239 567.231 800.074 558.206 800 549.171L799.75 451.937C799.756 442.915 793.92 433.892 782.25 427.006L542.187 285.334ZM540.598 295.24C517.268 281.472 479.43 281.469 456.093 295.232L247.335 418.353C224.003 432.114 224.003 454.424 247.335 468.185L456.106 591.313C479.438 605.074 517.266 605.074 540.598 591.313L749.292 468.23C772.618 454.472 772.623 432.168 749.308 418.406L540.598 295.24Z" fill="#F8F8F8"/>
</g>
<defs>
<clipPath id="clip0_64_64">
<rect width="600" height="451" fill="white" transform="translate(200 275)"/>
</clipPath>
</defs>
</svg>
