<svg width="1000" height="1000" viewBox="0 0 1000 1000" fill="none" xmlns="http://www.w3.org/2000/svg">
<g clip-path="url(#clip0_67_93)">
<path fill-rule="evenodd" clip-rule="evenodd" d="M301.166 500.612C312.476 500.237 322.162 497.687 330.225 492.962C339.042 487.794 343.423 481.625 343.367 474.454C343.37 467.248 338.993 461.08 330.237 455.949C321.481 450.818 310.955 448.253 298.66 448.254C286.423 448.222 275.896 450.789 267.079 455.956C258.262 461.123 253.852 467.309 253.85 474.515C253.963 481.72 258.369 487.871 267.067 492.969C272.749 496.299 279.65 498.609 287.769 499.9L287.593 507.853L300.99 508.259L301.166 500.612ZM287.946 491.437C283.654 490.486 279.943 489.092 276.812 487.258C270.782 483.724 267.767 479.509 267.769 474.615C267.77 469.721 270.874 465.455 277.081 461.818C283.288 458.18 290.567 456.361 298.919 456.36C307.27 456.359 314.461 458.126 320.492 461.66C326.522 465.194 329.537 469.408 329.535 474.302C329.534 479.197 326.429 483.463 320.222 487.1C314.944 490.193 308.651 491.978 301.343 492.455L301.608 478.639L288.211 478.233L287.946 491.437Z" fill="#23C1FF"/>
<path fill-rule="evenodd" clip-rule="evenodd" d="M314.864 416.987C305.8 411.672 291.1 411.671 282.034 416.984L188.798 471.623C184.256 474.285 181.99 477.775 182 481.264L182.019 518.687C181.984 522.195 184.25 525.709 188.817 528.385L282.038 583.016C291.103 588.328 305.8 588.328 314.864 583.016L408.085 528.385C412.729 525.745 414.995 522.264 414.967 518.778L414.87 481.264C414.871 477.783 412.606 474.302 408.076 471.645L314.864 416.987ZM314.247 420.809C305.188 415.497 290.496 415.496 281.436 420.806L200.379 468.307C191.32 473.616 191.32 482.224 200.379 487.532L281.44 535.037C290.499 540.346 305.188 540.346 314.247 535.037L395.279 487.55C404.336 482.242 404.338 473.637 395.283 468.327L314.247 420.809Z" fill="#23C1FF"/>
<path fill-rule="evenodd" clip-rule="evenodd" d="M551.796 498.546C551.796 508.169 548.504 516.546 541.921 523.677L549.864 531.569L541.169 539.15L532.903 530.946C526.534 534.477 519.843 536.242 512.83 536.242C502.095 536.242 492.899 532.608 485.242 525.338C477.656 518 473.863 509.069 473.863 498.546C473.863 488.023 477.656 479.127 485.242 471.858C492.828 464.519 502.024 460.85 512.83 460.85C523.636 460.85 532.832 464.519 540.418 471.858C548.003 479.127 551.796 488.023 551.796 498.546ZM512.83 524.611C516.694 524.611 520.451 523.815 524.101 522.223L510.361 508.619L519.056 501.038L533.44 515.265C537.448 510.419 539.451 504.846 539.451 498.546C539.451 491.139 536.875 484.942 531.722 479.958C526.57 474.973 520.272 472.481 512.83 472.481C505.387 472.481 499.089 474.973 493.937 479.958C488.784 484.942 486.208 491.139 486.208 498.546C486.208 505.954 488.784 512.15 493.937 517.135C499.089 522.119 505.387 524.611 512.83 524.611Z" fill="#23C1FF"/>
<path d="M606.489 481.827L590.495 534.892H576.218L554.964 462.2H567.953L583.732 519.004L600.8 462.2H612.179L629.139 519.004L644.921 462.2H657.907L636.653 534.892H622.378L606.489 481.827Z" fill="#23C1FF"/>
<path d="M704.591 462.2L740.016 511.527V462.2H752.361V534.892H742.699L707.275 485.565V534.892H694.934V462.2H704.591Z" fill="#23C1FF"/>
<path d="M772.87 531.569C777.949 534.685 784.104 536.242 791.331 536.242C799.347 536.242 805.75 534.338 810.546 530.531C815.486 526.654 817.952 521.427 817.952 514.85C818.383 509.104 815.808 504.119 810.224 499.896C808.865 498.858 807.039 497.889 804.748 496.989C801.96 495.881 800.1 495.188 799.168 494.911C798.597 494.704 796.519 494.011 792.943 492.835C787.145 491.104 783.172 489.477 781.029 487.954C778.881 486.361 777.805 484.216 777.805 481.516C777.805 478.746 778.881 476.565 781.029 474.973C783.172 473.311 786.034 472.481 789.615 472.481C796.985 472.481 802.243 475.873 805.393 482.658L815.808 476.842C813.373 471.789 809.867 467.877 805.288 465.108C800.78 462.269 795.552 460.85 789.615 460.85C782.889 460.85 777.2 462.754 772.547 466.562C767.825 470.3 765.46 475.389 765.46 481.827C765.46 488.265 767.895 493.146 772.761 496.469C776.769 499.031 782.031 501.246 788.539 503.115C794.912 504.985 799.346 506.716 801.851 508.308C804.356 509.9 805.611 512.15 805.611 515.058C805.611 517.966 804.43 520.284 802.065 522.015C799.704 523.746 796.232 524.611 791.653 524.611C782.209 524.611 775.98 520.527 772.974 512.357L762.35 518.381C764.353 523.989 767.86 528.385 772.87 531.569Z" fill="#23C1FF"/>
<path d="M679.914 462.2H667.573V534.892H679.914V462.2Z" fill="#23C1FF"/>
</g>
<defs>
<clipPath id="clip0_67_93">
<rect width="636" height="174" fill="white" transform="translate(182 413)"/>
</clipPath>
</defs>
</svg>
